<svg xmlns="http://www.w3.org/2000/svg" width="22.001" height="19.999" viewBox="0 0 22.001 19.999">
  <path d="M3768.049-1628.387a2,2,0,0,1-2-2v-14a2,2,0,0,1,2-2h2a1,1,0,0,1,1,1,1,1,0,0,1-1,1h-1a1,1,0,0,0-1,1v11a2,2,0,0,0,2,2h14a2,2,0,0,0,2-2v-11a1,1,0,0,0-1-1h-1a1,1,0,0,1-1-1,1,1,0,0,1,1-1h2a2,2,0,0,1,2,2v14a2,2,0,0,1-2,2Zm5-5v-2h-2a1,1,0,0,1-1-1,1,1,0,0,1,1-1h2v-2a1,1,0,0,1,1-1,1,1,0,0,1,1,1v2h2a1,1,0,0,1,1,1,1,1,0,0,1-1,1h-2v2a1,1,0,0,1-1,1A1,1,0,0,1,3773.049-1633.387Zm8-1.5a1.5,1.5,0,0,1,1.5-1.5,1.5,1.5,0,0,1,1.5,1.5,1.5,1.5,0,0,1-1.5,1.5A1.5,1.5,0,0,1,3781.049-1634.888Zm-2-4a1.5,1.5,0,0,1,1.5-1.5,1.5,1.5,0,0,1,1.5,1.5,1.5,1.5,0,0,1-1.5,1.5A1.5,1.5,0,0,1,3779.049-1638.887Zm0-5.5v-3a1,1,0,0,1,1-1,1,1,0,0,1,1,1v3a1,1,0,0,1-1,1A1,1,0,0,1,3779.049-1644.387Zm-6,0v-3a1,1,0,0,1,1-1,1,1,0,0,1,1,1v3a1,1,0,0,1-1,1A1,1,0,0,1,3773.049-1644.387Z" transform="translate(-3766.049 1648.387)" fill="currentColor" />
</svg>
